<svg width="55" height="55" viewBox="0 0 55 55" fill="none" xmlns="http://www.w3.org/2000/svg">
<path fill-rule="evenodd" clip-rule="evenodd" d="M16.2444 0C17.7396 0 18.9518 1.16301 18.9518 2.59766V5.19531H35.1961V2.59766C35.1961 1.16301 36.4083 0 37.9035 0C39.3988 0 40.6109 1.16301 40.6109 2.59766V5.19531H43.3183C49.2993 5.19531 54.1479 9.84735 54.1479 15.5859V44.1602C54.1479 49.8987 49.2993 54.5508 43.3183 54.5508H10.8296C4.84857 54.5508 0 49.8987 0 44.1602V15.5859C0 9.84735 4.84857 5.19531 10.8296 5.19531H13.537V2.59766C13.537 1.16301 14.7491 0 16.2444 0ZM35.1961 10.3906C35.1961 11.8253 36.4083 12.9883 37.9035 12.9883C39.3988 12.9883 40.6109 11.8253 40.6109 10.3906H43.3183C46.3088 10.3906 48.7331 12.7166 48.7331 15.5859V16.8848H5.41479V15.5859C5.41479 12.7166 7.83908 10.3906 10.8296 10.3906H13.537C13.537 11.8253 14.7491 12.9883 16.2444 12.9883C17.7396 12.9883 18.9518 11.8253 18.9518 10.3906H35.1961ZM48.7331 22.0801H5.41479V44.1602C5.41479 47.0294 7.83908 49.3555 10.8296 49.3555H43.3183C46.3088 49.3555 48.7331 47.0294 48.7331 44.1602V22.0801Z" fill="#667185"/>
</svg>
