<svg width="110" height="97" viewBox="0 0 110 97" fill="none" xmlns="http://www.w3.org/2000/svg">
<path fill-rule="evenodd" clip-rule="evenodd" d="M65.5164 9.63946C59.2039 5.74291 50.802 5.7429 44.4895 9.63946L12.9672 29.0973C7.6569 32.3752 4.70421 37.8823 5.20137 43.5814L8.4327 80.6243C9.04213 87.6106 16.2206 92.6884 24.0867 91.6975L38.6142 89.8674C45.3881 89.0141 50.4196 83.8983 50.4196 77.8643V72.7499C50.4196 70.5178 52.4716 68.7083 55.0029 68.7083C57.5342 68.7083 59.5863 70.5178 59.5863 72.7499V77.8643C59.5863 83.8983 64.6178 89.0141 71.3917 89.8674L85.9191 91.6975C93.7853 92.6884 100.964 87.6106 101.573 80.6243L104.804 43.5815C105.302 37.8823 102.349 32.3752 97.0386 29.0973L65.5164 9.63946ZM49.7462 16.2616C52.9025 14.3133 57.1034 14.3133 60.2597 16.2616L91.7819 35.7194C94.4371 37.3584 95.9134 40.1119 95.6648 42.9615L92.4335 80.0043C92.2304 82.3331 89.8375 84.0257 87.2155 83.6954L72.6881 81.8653C70.4301 81.5809 68.7529 79.8756 68.7529 77.8643V72.7499C68.7529 66.0535 62.5968 60.6249 55.0029 60.6249C47.409 60.6249 41.2529 66.0535 41.2529 72.7499V77.8643C41.2529 79.8756 39.5758 81.5809 37.3178 81.8653L22.7904 83.6954C20.1683 84.0257 17.7755 82.3331 17.5724 80.0043L14.341 42.9615C14.0925 40.1119 15.5688 37.3584 18.224 35.7194L49.7462 16.2616Z" fill="#D917EB"/>
</svg>
