<svg width="57" height="60" viewBox="0 0 57 60" fill="none" xmlns="http://www.w3.org/2000/svg">
<path d="M14.9286 6C16.4276 6 17.6429 4.65685 17.6429 3C17.6429 1.34315 16.4276 0 14.9286 0H10.8571C4.86091 0 0 5.37258 0 12V48C0 54.6274 4.86091 60 10.8571 60H14.9286C16.4276 60 17.6429 58.6569 17.6429 57C17.6429 55.3431 16.4276 54 14.9286 54H10.8571C7.85903 54 5.42857 51.3137 5.42857 48L5.42857 12C5.42857 8.68629 7.85903 6 10.8571 6H14.9286Z" fill="black"/>
<path d="M56.205 32.1213C57.265 30.9497 57.265 29.0503 56.205 27.8787L45.3479 15.8787C44.2879 14.7071 42.5693 14.7071 41.5093 15.8787C40.4493 17.0503 40.4493 18.9497 41.5093 20.1213L47.7328 27L16.2857 27C14.7867 27 13.5714 28.3431 13.5714 30C13.5714 31.6569 14.7867 33 16.2857 33L47.7328 33L41.5093 39.8787C40.4493 41.0503 40.4493 42.9497 41.5093 44.1213C42.5693 45.2929 44.2879 45.2929 45.3479 44.1213L56.205 32.1213Z" fill="black"/>
</svg>
