<svg width="405" height="130" viewBox="0 0 405 130" fill="none" xmlns="http://www.w3.org/2000/svg">
<path d="M62.26 56.6V58.52H58.42V93.08H62.26V95H44.02V93.08H47.38V76.28H36.34V93.08H39.7V95H21.46V93.08H25.3V58.52H21.46V56.6H39.7V58.52H36.34V74.36H47.38V58.52H44.02V56.6H62.26ZM70.0671 95L65.6031 90.536V70.664L70.0671 66.2H88.4991L92.9631 70.664V78.536L88.4991 83H76.6431V93.08H87.6831L91.7151 89.048L93.2031 90.536L88.7391 95H70.0671ZM76.6431 68.12V81.08H81.9231V68.12H76.6431ZM122.731 69.704L121.243 71.192L118.171 68.12H114.091L110.731 71.48V93.08H114.571V95H104.155L99.6906 90.536V68.12H95.8506V66.2H106.267L109.675 69.56L113.035 66.2H119.227L122.731 69.704ZM164.926 93.08V95H145.054V93.08H150.19L146.158 80.6H132.862L128.782 93.08H133.678V95H123.214V93.08H126.478L138.334 56.6H149.806L161.662 93.08H164.926ZM145.534 78.68L139.486 60.152L133.486 78.68H145.534ZM193.231 69.704L191.743 71.192L188.671 68.12H184.591L181.231 71.48V93.08H185.071V95H174.655L170.191 90.536V68.12H166.351V66.2H176.767L180.175 69.56L183.535 66.2H189.727L193.231 69.704ZM215.554 90.536L211.09 95H201.538L197.074 90.536V59.96H193.714V58.04H203.41L207.394 62.024V69.08H214.114V71H207.394V93.08H210.034L214.066 89.048L215.554 90.536ZM218.931 83.48H221.091V88.664L225.507 93.08H240.963L219.411 67.688V61.064L223.875 56.6H242.739L246.099 59.96V56.12H248.259V68.12H246.099V62.936L241.683 58.52H227.667L249.219 83.912V90.536L244.755 95H224.451L221.091 91.64V95.48H218.931V83.48ZM256.441 68.12H252.601V66.2H263.017L266.425 69.56L269.785 66.2H281.017L285.481 70.664V90.536L281.017 95H269.785L267.481 92.696V108.92H270.841V110.84H260.905L256.441 106.376V68.12ZM267.481 71.48V89.72L270.841 93.08H274.201V68.12H270.841L267.481 71.48ZM294.739 95L290.755 91.016V83.624L294.739 79.64H307.075V68.12H302.035V75.8H291.955V70.184L295.939 66.2H314.131L318.115 70.184V93.08H321.955V95H311.059L308.179 92.072L305.251 95H294.739ZM302.035 81.56V93.08H304.195L307.075 90.2V81.56H302.035ZM340.938 75.8V68.12H335.898V93.08H345.018L348.81 89.288L350.298 90.776L346.074 95H329.322L324.858 90.536V70.664L329.322 66.2H347.034L350.538 69.704V75.8H340.938ZM358.864 95L354.4 90.536V70.664L358.864 66.2H377.296L381.76 70.664V78.536L377.296 83H365.44V93.08H376.48L380.512 89.048L382 90.536L377.536 95H358.864ZM365.44 68.12V81.08H370.72V68.12H365.44Z" fill="#5C0760"/>
</svg>
