<svg width="95" height="93" viewBox="0 0 95 93" fill="none" xmlns="http://www.w3.org/2000/svg">
<path d="M23.7501 32.9375C23.7501 30.7974 25.5223 29.0625 27.7084 29.0625H47.5001C49.6862 29.0625 51.4584 30.7974 51.4584 32.9375C51.4584 35.0776 49.6862 36.8125 47.5001 36.8125H27.7084C25.5223 36.8125 23.7501 35.0776 23.7501 32.9375Z" fill="#667185"/>
<path d="M27.7084 44.5625C25.5223 44.5625 23.7501 46.2974 23.7501 48.4375C23.7501 50.5776 25.5223 52.3125 27.7084 52.3125H63.3334C65.5195 52.3125 67.2918 50.5776 67.2918 48.4375C67.2918 46.2974 65.5195 44.5625 63.3334 44.5625H27.7084Z" fill="#667185"/>
<path fill-rule="evenodd" clip-rule="evenodd" d="M60.9584 77.3063L66.5001 73.2375C67.8704 72.2314 69.5372 71.6875 71.2501 71.6875C79.9946 71.6875 87.0834 64.7479 87.0834 56.1875V25.1875C87.0834 16.6271 79.9946 9.6875 71.2501 9.6875H23.7501C15.0056 9.6875 7.91675 16.6271 7.91675 25.1875V56.1875C7.91675 64.7479 15.0056 71.6875 23.7501 71.6875H31.6667C33.3797 71.6875 35.0464 72.2314 36.4167 73.2375L41.9584 77.3063C47.588 81.4396 55.3288 81.4396 60.9584 77.3063ZM71.2501 63.9375C67.8242 63.9375 64.4908 65.0253 61.7501 67.0375L56.2084 71.1063C53.3936 73.1729 49.5232 73.1729 46.7084 71.1063L41.1667 67.0375C38.4261 65.0253 35.0926 63.9375 31.6667 63.9375H23.7501C19.3778 63.9375 15.8334 60.4677 15.8334 56.1875V25.1875C15.8334 20.9073 19.3778 17.4375 23.7501 17.4375H71.2501C75.6223 17.4375 79.1667 20.9073 79.1667 25.1875V56.1875C79.1667 60.4677 75.6223 63.9375 71.2501 63.9375Z" fill="#667185"/>
</svg>
