<svg width="61" height="58" viewBox="0 0 61 58" fill="none" xmlns="http://www.w3.org/2000/svg">
<path d="M13.5556 29C13.5556 27.544 15.0728 26.3636 16.9444 26.3636H44.0556C45.9272 26.3636 47.4444 27.544 47.4444 29C47.4444 30.456 45.9272 31.6364 44.0556 31.6364H16.9444C15.0728 31.6364 13.5556 30.456 13.5556 29Z" fill="#667185"/>
<path d="M16.9444 39.5455C15.0728 39.5455 13.5556 40.7258 13.5556 42.1818C13.5556 43.6378 15.0728 44.8182 16.9444 44.8182H44.0556C45.9272 44.8182 47.4444 43.6378 47.4444 42.1818C47.4444 40.7258 45.9272 39.5455 44.0556 39.5455H16.9444Z" fill="#667185"/>
<path fill-rule="evenodd" clip-rule="evenodd" d="M13.5556 0C6.06903 0 0 4.72136 0 10.5455V47.4545C0 53.2786 6.06903 58 13.5556 58H47.4444C54.931 58 61 53.2786 61 47.4545V21.318C61 18.8511 59.8882 16.4622 57.8581 14.567L46.3185 3.79442C43.743 1.39013 39.9279 0 35.9049 0H13.5556ZM6.77778 10.5455C6.77778 7.63341 9.81229 5.27273 13.5556 5.27273H33.8889V13.1818C33.8889 19.0059 39.9579 23.7273 47.4444 23.7273H54.2222V47.4545C54.2222 50.3666 51.1877 52.7273 47.4444 52.7273H13.5556C9.81229 52.7273 6.77778 50.3666 6.77778 47.4545V10.5455ZM53.1357 18.4545C52.9882 18.2772 52.8266 18.1062 52.6513 17.9425L41.1117 7.16994C40.9706 7.03819 40.822 6.91254 40.6667 6.79323V13.1818C40.6667 16.0939 43.7012 18.4545 47.4444 18.4545H53.1357Z" fill="#667185"/>
</svg>
