<svg width="78" height="79" viewBox="0 0 78 79" fill="none" xmlns="http://www.w3.org/2000/svg">
<path fill-rule="evenodd" clip-rule="evenodd" d="M38.998 19.7502C28.2284 19.7502 19.498 28.5925 19.498 39.5002C19.498 50.4078 28.2284 59.2502 38.998 59.2502C49.7675 59.2502 58.498 50.4078 58.498 39.5002C58.498 28.5925 49.7675 19.7502 38.998 19.7502ZM25.998 39.5002C25.998 32.2284 31.8183 26.3335 38.998 26.3335C46.1777 26.3335 51.998 32.2284 51.998 39.5002C51.998 46.7719 46.1777 52.6668 38.998 52.6668C31.8183 52.6668 25.998 46.7719 25.998 39.5002Z" fill="#667185"/>
<path fill-rule="evenodd" clip-rule="evenodd" d="M47.1289 6.67862C42.5954 2.23668 35.4006 2.23668 30.8671 6.67862C29.7156 7.80684 28.1145 8.33374 26.5282 8.10649C20.2827 7.21177 14.462 11.495 13.3722 17.7875C13.0953 19.3857 12.1058 20.7651 10.6906 21.5257C5.11859 24.5199 2.89528 31.4503 5.6654 37.1898C6.369 38.6476 6.369 40.3527 5.6654 41.8105C2.89528 47.55 5.11859 54.4804 10.6906 57.4746C12.1058 58.2352 13.0953 59.6146 13.3722 61.2128C14.462 67.5053 20.2827 71.7885 26.5282 70.8938C28.1145 70.6666 29.7156 71.1935 30.8671 72.3217C35.4006 76.7636 42.5954 76.7636 47.1289 72.3217C48.2803 71.1935 49.8815 70.6666 51.4678 70.8938C57.7133 71.7885 63.534 67.5053 64.6238 61.2128C64.9006 59.6146 65.8902 58.2352 67.3054 57.4746C72.8774 54.4804 75.1007 47.55 72.3306 41.8105C71.627 40.3527 71.627 38.6476 72.3306 37.1898C75.1007 31.4503 72.8774 24.5199 67.3054 21.5257C65.8902 20.7651 64.9006 19.3857 64.6238 17.7875C63.534 11.495 57.7133 7.21177 51.4678 8.10649C49.8815 8.33374 48.2803 7.80684 47.1289 6.67862ZM35.3865 11.4102C37.4001 9.43726 40.5958 9.43726 42.6095 11.4102C45.2019 13.9503 48.8066 15.1366 52.3781 14.6249C55.1521 14.2275 57.7375 16.13 58.2216 18.9249C58.8448 22.5232 61.0726 25.6289 64.2589 27.3411C66.7338 28.6711 67.7213 31.7493 66.4909 34.2986C64.9069 37.5807 64.9069 41.4196 66.4909 44.7017C67.7213 47.251 66.7338 50.3292 64.2589 51.6592C61.0726 53.3714 58.8448 56.4771 58.2216 60.0754C57.7375 62.8703 55.1521 64.7728 52.3781 64.3754C48.8066 63.8637 45.2019 65.05 42.6095 67.5901C40.5958 69.563 37.4001 69.563 35.3865 67.5901C32.7941 65.05 29.1893 63.8637 25.6179 64.3754C22.8438 64.7728 20.2585 62.8703 19.7744 60.0754C19.1512 56.4771 16.9234 53.3714 13.737 51.6592C11.2622 50.3292 10.2746 47.251 11.505 44.7017C13.0891 41.4196 13.0891 37.5807 11.505 34.2986C10.2746 31.7493 11.2622 28.6711 13.737 27.3411C16.9233 25.6289 19.1512 22.5232 19.7744 18.9249C20.2585 16.13 22.8438 14.2275 25.6179 14.6249C29.1893 15.1366 32.7941 13.9503 35.3865 11.4102Z" fill="#667185"/>
</svg>
